# xmcd
#
# Track frame offsets:
#	150
#	16534
#	35002
#	52715
#	69018
#	84459
#	101345
#	116324
#	130867
#	147947
#	166281
#	181015
#	197335
#	212194
#	227164
#	244012
#
# Disc length: 3515
#
# Revision: 3
# Processed by: cddbd v1.5.1PL0 Copyright (c) Steve Scherf et al.
# Submitted via: VisiTrax 2.9.9.209 - For more info visit www.synapsa.com
# Normalized: r2:DSETVAR1
#
DISCID=bd0db910
DTITLE=Various Artist - CDX 342 april 2004
DYEAR=2004
DGENRE=Country
TTITLE0=Terri Clark - Girls lie too
TTITLE1=Jessi Alexander - Honeysuckle sweet
TTITLE2=Martina McBride - How far
TTITLE3=Phil Vasser - In a real love
TTITLE4=Patty Loveless - I wanna believe
TTITLE5=Rachel Proctor - Me and Emily
TTITLE6=Steve Holy - Put your best dress on
TTITLE7=Trace Adkins - Rough and ready
TTITLE8=Mary Chapin Carpenter - What would you say to me
TTITLE9=Toby Keith - Whiskey girl
TTITLE10=Johnny Lee - I'd marry you again
TTITLE11=The Rider - Do you remember
TTITLE12=Deidra Whatley - I like his ways (James that is)
TTITLE13=Vince Hatfield - My heart keeps walking back to you
TTITLE14=Anthony Michael James - Sweet Sarah
TTITLE15=Colte Bradley - The hand (is it too much to ask)
EXTD=
EXTT0=
EXTT1=
EXTT2=
EXTT3=
EXTT4=
EXTT5=
EXTT6=
EXTT7=
EXTT8=
EXTT9=
EXTT10=
EXTT11=
EXTT12=
EXTT13=
EXTT14=
EXTT15=
PLAYORDER=
